<svg id="visual" viewBox="0 0 900 200" width="900" height="200" xmlns="http://www.w3.org/2000/svg" xmlns:xlink="http://www.w3.org/1999/xlink" version="1.1"><path d="M0 11L13.7 12.3C27.3 13.7 54.7 16.3 82 19.3C109.3 22.3 136.7 25.7 163.8 24.7C191 23.7 218 18.3 245.2 17.3C272.3 16.3 299.7 19.7 327 22.3C354.3 25 381.7 27 409 28C436.3 29 463.7 29 491 27C518.3 25 545.7 21 573 19C600.3 17 627.7 17 654.8 19C682 21 709 25 736.2 25.3C763.3 25.7 790.7 22.3 818 20.3C845.3 18.3 872.7 17.7 886.3 17.3L900 17L900 0L886.3 0C872.7 0 845.3 0 818 0C790.7 0 763.3 0 736.2 0C709 0 682 0 654.8 0C627.7 0 600.3 0 573 0C545.7 0 518.3 0 491 0C463.7 0 436.3 0 409 0C381.7 0 354.3 0 327 0C299.7 0 272.3 0 245.2 0C218 0 191 0 163.8 0C136.7 0 109.3 0 82 0C54.7 0 27.3 0 13.7 0L0 0Z" fill="#f3eed9"></path><path d="M0 45L13.7 47C27.3 49 54.7 53 82 64.3C109.3 75.7 136.7 94.3 163.8 94.7C191 95 218 77 245.2 71C272.3 65 299.7 71 327 74C354.3 77 381.7 77 409 77.7C436.3 78.3 463.7 79.7 491 75C518.3 70.3 545.7 59.7 573 59.7C600.3 59.7 627.7 70.3 654.8 75.3C682 80.3 709 79.7 736.2 82.7C763.3 85.7 790.7 92.3 818 93C845.3 93.7 872.7 88.3 886.3 85.7L900 83L900 15L886.3 15.3C872.7 15.7 845.3 16.3 818 18.3C790.7 20.3 763.3 23.7 736.2 23.3C709 23 682 19 654.8 17C627.7 15 600.3 15 573 17C545.7 19 518.3 23 491 25C463.7 27 436.3 27 409 26C381.7 25 354.3 23 327 20.3C299.7 17.7 272.3 14.3 245.2 15.3C218 16.3 191 21.7 163.8 22.7C136.7 23.7 109.3 20.3 82 17.3C54.7 14.3 27.3 11.7 13.7 10.3L0 9Z" fill="#f7cfb1"></path><path d="M0 79L13.7 84C27.3 89 54.7 99 82 109.7C109.3 120.3 136.7 131.7 163.8 128C191 124.3 218 105.7 245.2 101.3C272.3 97 299.7 107 327 111.3C354.3 115.7 381.7 114.3 409 111C436.3 107.7 463.7 102.3 491 100.3C518.3 98.3 545.7 99.7 573 101.3C600.3 103 627.7 105 654.8 109.7C682 114.3 709 121.7 736.2 123.3C763.3 125 790.7 121 818 117C845.3 113 872.7 109 886.3 107L900 105L900 81L886.3 83.7C872.7 86.3 845.3 91.7 818 91C790.7 90.3 763.3 83.7 736.2 80.7C709 77.7 682 78.3 654.8 73.3C627.7 68.3 600.3 57.7 573 57.7C545.7 57.7 518.3 68.3 491 73C463.7 77.7 436.3 76.3 409 75.7C381.7 75 354.3 75 327 72C299.7 69 272.3 63 245.2 69C218 75 191 93 163.8 92.7C136.7 92.3 109.3 73.7 82 62.3C54.7 51 27.3 47 13.7 45L0 43Z" fill="#feaaa2"></path><path d="M0 107L13.7 110.3C27.3 113.7 54.7 120.3 82 129C109.3 137.7 136.7 148.3 163.8 145C191 141.7 218 124.3 245.2 121.7C272.3 119 299.7 131 327 136C354.3 141 381.7 139 409 133.3C436.3 127.7 463.7 118.3 491 115.3C518.3 112.3 545.7 115.7 573 120.3C600.3 125 627.7 131 654.8 135.3C682 139.7 709 142.3 736.2 141.3C763.3 140.3 790.7 135.7 818 133.7C845.3 131.7 872.7 132.3 886.3 132.7L900 133L900 103L886.3 105C872.7 107 845.3 111 818 115C790.7 119 763.3 123 736.2 121.3C709 119.7 682 112.3 654.8 107.7C627.7 103 600.3 101 573 99.3C545.7 97.7 518.3 96.3 491 98.3C463.7 100.3 436.3 105.7 409 109C381.7 112.3 354.3 113.7 327 109.3C299.7 105 272.3 95 245.2 99.3C218 103.7 191 122.3 163.8 126C136.7 129.7 109.3 118.3 82 107.7C54.7 97 27.3 87 13.7 82L0 77Z" fill="#f388b3"></path><path d="M0 123L13.7 125.7C27.3 128.3 54.7 133.7 82 141.3C109.3 149 136.7 159 163.8 157.7C191 156.3 218 143.7 245.2 143.3C272.3 143 299.7 155 327 159.7C354.3 164.3 381.7 161.7 409 156C436.3 150.3 463.7 141.7 491 137.7C518.3 133.7 545.7 134.3 573 138C600.3 141.7 627.7 148.3 654.8 152C682 155.7 709 156.3 736.2 155.7C763.3 155 790.7 153 818 152.3C845.3 151.7 872.7 152.3 886.3 152.7L900 153L900 131L886.3 130.7C872.7 130.3 845.3 129.7 818 131.7C790.7 133.7 763.3 138.3 736.2 139.3C709 140.3 682 137.7 654.8 133.3C627.7 129 600.3 123 573 118.3C545.7 113.7 518.3 110.3 491 113.3C463.7 116.3 436.3 125.7 409 131.3C381.7 137 354.3 139 327 134C299.7 129 272.3 117 245.2 119.7C218 122.3 191 139.7 163.8 143C136.7 146.3 109.3 135.7 82 127C54.7 118.3 27.3 111.7 13.7 108.3L0 105Z" fill="#bf78d7"></path><path d="M0 201L13.7 201C27.3 201 54.7 201 82 201C109.3 201 136.7 201 163.8 201C191 201 218 201 245.2 201C272.3 201 299.7 201 327 201C354.3 201 381.7 201 409 201C436.3 201 463.7 201 491 201C518.3 201 545.7 201 573 201C600.3 201 627.7 201 654.8 201C682 201 709 201 736.2 201C763.3 201 790.7 201 818 201C845.3 201 872.7 201 886.3 201L900 201L900 151L886.3 150.7C872.7 150.3 845.3 149.7 818 150.3C790.7 151 763.3 153 736.2 153.7C709 154.3 682 153.7 654.8 150C627.7 146.3 600.3 139.7 573 136C545.7 132.3 518.3 131.7 491 135.7C463.7 139.7 436.3 148.3 409 154C381.7 159.7 354.3 162.3 327 157.7C299.7 153 272.3 141 245.2 141.3C218 141.7 191 154.3 163.8 155.7C136.7 157 109.3 147 82 139.3C54.7 131.7 27.3 126.3 13.7 123.7L0 121Z" fill="#007cf3"></path></svg>