<svg id="visual" viewBox="0 0 900 200" width="900" height="200" xmlns="http://www.w3.org/2000/svg" xmlns:xlink="http://www.w3.org/1999/xlink" version="1.1"><path d="M0 11L13.7 12.3C27.3 13.7 54.7 16.3 82 17.3C109.3 18.3 136.7 17.7 163.8 19C191 20.3 218 23.7 245.2 23.7C272.3 23.7 299.7 20.3 327 19.7C354.3 19 381.7 21 409 23C436.3 25 463.7 27 491 27.3C518.3 27.7 545.7 26.3 573 26C600.3 25.7 627.7 26.3 654.8 27C682 27.7 709 28.3 736.2 28.7C763.3 29 790.7 29 818 28.7C845.3 28.3 872.7 27.7 886.3 27.3L900 27L900 0L886.3 0C872.7 0 845.3 0 818 0C790.7 0 763.3 0 736.2 0C709 0 682 0 654.8 0C627.7 0 600.3 0 573 0C545.7 0 518.3 0 491 0C463.7 0 436.3 0 409 0C381.7 0 354.3 0 327 0C299.7 0 272.3 0 245.2 0C218 0 191 0 163.8 0C136.7 0 109.3 0 82 0C54.7 0 27.3 0 13.7 0L0 0Z" fill="#e07b41"></path><path d="M0 27L13.7 28.7C27.3 30.3 54.7 33.7 82 36.7C109.3 39.7 136.7 42.3 163.8 44.3C191 46.3 218 47.7 245.2 45.3C272.3 43 299.7 37 327 37C354.3 37 381.7 43 409 46.7C436.3 50.3 463.7 51.7 491 50.7C518.3 49.7 545.7 46.3 573 46C600.3 45.7 627.7 48.3 654.8 49C682 49.7 709 48.3 736.2 48C763.3 47.7 790.7 48.3 818 50C845.3 51.7 872.7 54.3 886.3 55.7L900 57L900 25L886.3 25.3C872.7 25.7 845.3 26.3 818 26.7C790.7 27 763.3 27 736.2 26.7C709 26.3 682 25.7 654.8 25C627.7 24.3 600.3 23.7 573 24C545.7 24.3 518.3 25.7 491 25.3C463.7 25 436.3 23 409 21C381.7 19 354.3 17 327 17.7C299.7 18.3 272.3 21.7 245.2 21.7C218 21.7 191 18.3 163.8 17C136.7 15.7 109.3 16.3 82 15.3C54.7 14.3 27.3 11.7 13.7 10.3L0 9Z" fill="#e19657"></path><path d="M0 53L13.7 55.3C27.3 57.7 54.7 62.3 82 65.7C109.3 69 136.7 71 163.8 70.3C191 69.7 218 66.3 245.2 64C272.3 61.7 299.7 60.3 327 61.7C354.3 63 381.7 67 409 71C436.3 75 463.7 79 491 79.3C518.3 79.7 545.7 76.3 573 74.3C600.3 72.3 627.7 71.7 654.8 69C682 66.3 709 61.7 736.2 61.7C763.3 61.7 790.7 66.3 818 71.3C845.3 76.3 872.7 81.7 886.3 84.3L900 87L900 55L886.3 53.7C872.7 52.3 845.3 49.7 818 48C790.7 46.3 763.3 45.7 736.2 46C709 46.3 682 47.7 654.8 47C627.7 46.3 600.3 43.7 573 44C545.7 44.3 518.3 47.7 491 48.7C463.7 49.7 436.3 48.3 409 44.7C381.7 41 354.3 35 327 35C299.7 35 272.3 41 245.2 43.3C218 45.7 191 44.3 163.8 42.3C136.7 40.3 109.3 37.7 82 34.7C54.7 31.7 27.3 28.3 13.7 26.7L0 25Z" fill="#e3ae73"></path><path d="M0 73L13.7 79.3C27.3 85.7 54.7 98.3 82 104C109.3 109.7 136.7 108.3 163.8 106.7C191 105 218 103 245.2 98.7C272.3 94.3 299.7 87.7 327 89C354.3 90.3 381.7 99.7 409 107C436.3 114.3 463.7 119.7 491 119.7C518.3 119.7 545.7 114.3 573 113C600.3 111.7 627.7 114.3 654.8 111C682 107.7 709 98.3 736.2 93.3C763.3 88.3 790.7 87.7 818 90C845.3 92.3 872.7 97.7 886.3 100.3L900 103L900 85L886.3 82.3C872.7 79.7 845.3 74.3 818 69.3C790.7 64.3 763.3 59.7 736.2 59.7C709 59.7 682 64.3 654.8 67C627.7 69.7 600.3 70.3 573 72.3C545.7 74.3 518.3 77.7 491 77.3C463.7 77 436.3 73 409 69C381.7 65 354.3 61 327 59.7C299.7 58.3 272.3 59.7 245.2 62C218 64.3 191 67.7 163.8 68.3C136.7 69 109.3 67 82 63.7C54.7 60.3 27.3 55.7 13.7 53.3L0 51Z" fill="#e6c592"></path><path d="M0 165L13.7 164C27.3 163 54.7 161 82 160.3C109.3 159.7 136.7 160.3 163.8 156.3C191 152.3 218 143.7 245.2 142C272.3 140.3 299.7 145.7 327 150.7C354.3 155.7 381.7 160.3 409 163C436.3 165.7 463.7 166.3 491 167.3C518.3 168.3 545.7 169.7 573 169.7C600.3 169.7 627.7 168.3 654.8 165.7C682 163 709 159 736.2 156C763.3 153 790.7 151 818 154C845.3 157 872.7 165 886.3 169L900 173L900 101L886.3 98.3C872.7 95.7 845.3 90.3 818 88C790.7 85.7 763.3 86.3 736.2 91.3C709 96.3 682 105.7 654.8 109C627.7 112.3 600.3 109.7 573 111C545.7 112.3 518.3 117.7 491 117.7C463.7 117.7 436.3 112.3 409 105C381.7 97.7 354.3 88.3 327 87C299.7 85.7 272.3 92.3 245.2 96.7C218 101 191 103 163.8 104.7C136.7 106.3 109.3 107.7 82 102C54.7 96.3 27.3 83.7 13.7 77.3L0 71Z" fill="#ebdab5"></path><path d="M0 201L13.7 201C27.3 201 54.7 201 82 201C109.3 201 136.7 201 163.8 201C191 201 218 201 245.2 201C272.3 201 299.7 201 327 201C354.3 201 381.7 201 409 201C436.3 201 463.7 201 491 201C518.3 201 545.7 201 573 201C600.3 201 627.7 201 654.8 201C682 201 709 201 736.2 201C763.3 201 790.7 201 818 201C845.3 201 872.7 201 886.3 201L900 201L900 171L886.3 167C872.7 163 845.3 155 818 152C790.7 149 763.3 151 736.2 154C709 157 682 161 654.8 163.7C627.7 166.3 600.3 167.7 573 167.7C545.7 167.7 518.3 166.3 491 165.3C463.7 164.3 436.3 163.7 409 161C381.7 158.3 354.3 153.7 327 148.7C299.7 143.7 272.3 138.3 245.2 140C218 141.7 191 150.3 163.8 154.3C136.7 158.3 109.3 157.7 82 158.3C54.7 159 27.3 161 13.7 162L0 163Z" fill="#f3eed9"></path></svg>