<svg id="visual" viewBox="0 0 900 200" width="900" height="200" xmlns="http://www.w3.org/2000/svg" xmlns:xlink="http://www.w3.org/1999/xlink" version="1.1"><path d="M0 19L13.7 18.3C27.3 17.7 54.7 16.3 82 17C109.3 17.7 136.7 20.3 163.8 22.3C191 24.3 218 25.7 245.2 25C272.3 24.3 299.7 21.7 327 22.7C354.3 23.7 381.7 28.3 409 28C436.3 27.7 463.7 22.3 491 18.7C518.3 15 545.7 13 573 12.7C600.3 12.3 627.7 13.7 654.8 17C682 20.3 709 25.7 736.2 25.7C763.3 25.7 790.7 20.3 818 18C845.3 15.7 872.7 16.3 886.3 16.7L900 17L900 0L886.3 0C872.7 0 845.3 0 818 0C790.7 0 763.3 0 736.2 0C709 0 682 0 654.8 0C627.7 0 600.3 0 573 0C545.7 0 518.3 0 491 0C463.7 0 436.3 0 409 0C381.7 0 354.3 0 327 0C299.7 0 272.3 0 245.2 0C218 0 191 0 163.8 0C136.7 0 109.3 0 82 0C54.7 0 27.3 0 13.7 0L0 0Z" fill="#0e0e0e"></path><path d="M0 33L13.7 33.7C27.3 34.3 54.7 35.7 82 36.7C109.3 37.7 136.7 38.3 163.8 41C191 43.7 218 48.3 245.2 50.3C272.3 52.3 299.7 51.7 327 51.3C354.3 51 381.7 51 409 50.7C436.3 50.3 463.7 49.7 491 45.3C518.3 41 545.7 33 573 33.7C600.3 34.3 627.7 43.7 654.8 47.3C682 51 709 49 736.2 46C763.3 43 790.7 39 818 39.3C845.3 39.7 872.7 44.3 886.3 46.7L900 49L900 15L886.3 14.7C872.7 14.3 845.3 13.7 818 16C790.7 18.3 763.3 23.7 736.2 23.7C709 23.7 682 18.3 654.8 15C627.7 11.7 600.3 10.3 573 10.7C545.7 11 518.3 13 491 16.7C463.7 20.3 436.3 25.7 409 26C381.7 26.3 354.3 21.7 327 20.7C299.7 19.7 272.3 22.3 245.2 23C218 23.7 191 22.3 163.8 20.3C136.7 18.3 109.3 15.7 82 15C54.7 14.3 27.3 15.7 13.7 16.3L0 17Z" fill="#34231a"></path><path d="M0 61L13.7 61.3C27.3 61.7 54.7 62.3 82 63.3C109.3 64.3 136.7 65.7 163.8 68.7C191 71.7 218 76.3 245.2 78C272.3 79.7 299.7 78.3 327 75.7C354.3 73 381.7 69 409 66C436.3 63 463.7 61 491 59C518.3 57 545.7 55 573 58.3C600.3 61.7 627.7 70.3 654.8 71.7C682 73 709 67 736.2 62.3C763.3 57.7 790.7 54.3 818 54.3C845.3 54.3 872.7 57.7 886.3 59.3L900 61L900 47L886.3 44.7C872.7 42.3 845.3 37.7 818 37.3C790.7 37 763.3 41 736.2 44C709 47 682 49 654.8 45.3C627.7 41.7 600.3 32.3 573 31.7C545.7 31 518.3 39 491 43.3C463.7 47.7 436.3 48.3 409 48.7C381.7 49 354.3 49 327 49.3C299.7 49.7 272.3 50.3 245.2 48.3C218 46.3 191 41.7 163.8 39C136.7 36.3 109.3 35.7 82 34.7C54.7 33.7 27.3 32.3 13.7 31.7L0 31Z" fill="#5b3723"></path><path d="M0 105L13.7 103.3C27.3 101.7 54.7 98.3 82 99C109.3 99.7 136.7 104.3 163.8 105C191 105.7 218 102.3 245.2 99.7C272.3 97 299.7 95 327 96.7C354.3 98.3 381.7 103.7 409 100.7C436.3 97.7 463.7 86.3 491 83.7C518.3 81 545.7 87 573 93C600.3 99 627.7 105 654.8 105.7C682 106.3 709 101.7 736.2 97.3C763.3 93 790.7 89 818 88.3C845.3 87.7 872.7 90.3 886.3 91.7L900 93L900 59L886.3 57.3C872.7 55.7 845.3 52.3 818 52.3C790.7 52.3 763.3 55.7 736.2 60.3C709 65 682 71 654.8 69.7C627.7 68.3 600.3 59.7 573 56.3C545.7 53 518.3 55 491 57C463.7 59 436.3 61 409 64C381.7 67 354.3 71 327 73.7C299.7 76.3 272.3 77.7 245.2 76C218 74.3 191 69.7 163.8 66.7C136.7 63.7 109.3 62.3 82 61.3C54.7 60.3 27.3 59.7 13.7 59.3L0 59Z" fill="#854d2d"></path><path d="M0 177L13.7 173C27.3 169 54.7 161 82 156.7C109.3 152.3 136.7 151.7 163.8 155.3C191 159 218 167 245.2 169C272.3 171 299.7 167 327 162C354.3 157 381.7 151 409 144C436.3 137 463.7 129 491 127.7C518.3 126.3 545.7 131.7 573 139C600.3 146.3 627.7 155.7 654.8 157.7C682 159.7 709 154.3 736.2 154.7C763.3 155 790.7 161 818 157C845.3 153 872.7 139 886.3 132L900 125L900 91L886.3 89.7C872.7 88.3 845.3 85.7 818 86.3C790.7 87 763.3 91 736.2 95.3C709 99.7 682 104.3 654.8 103.7C627.7 103 600.3 97 573 91C545.7 85 518.3 79 491 81.7C463.7 84.3 436.3 95.7 409 98.7C381.7 101.7 354.3 96.3 327 94.7C299.7 93 272.3 95 245.2 97.7C218 100.3 191 103.7 163.8 103C136.7 102.3 109.3 97.7 82 97C54.7 96.3 27.3 99.7 13.7 101.3L0 103Z" fill="#b26437"></path><path d="M0 201L13.7 201C27.3 201 54.7 201 82 201C109.3 201 136.7 201 163.8 201C191 201 218 201 245.2 201C272.3 201 299.7 201 327 201C354.3 201 381.7 201 409 201C436.3 201 463.7 201 491 201C518.3 201 545.7 201 573 201C600.3 201 627.7 201 654.8 201C682 201 709 201 736.2 201C763.3 201 790.7 201 818 201C845.3 201 872.7 201 886.3 201L900 201L900 123L886.3 130C872.7 137 845.3 151 818 155C790.7 159 763.3 153 736.2 152.7C709 152.3 682 157.7 654.8 155.7C627.7 153.7 600.3 144.3 573 137C545.7 129.7 518.3 124.3 491 125.7C463.7 127 436.3 135 409 142C381.7 149 354.3 155 327 160C299.7 165 272.3 169 245.2 167C218 165 191 157 163.8 153.3C136.7 149.7 109.3 150.3 82 154.7C54.7 159 27.3 167 13.7 171L0 175Z" fill="#e07b41"></path></svg>