<svg id="visual" viewBox="0 0 900 200" width="900" height="200" xmlns="http://www.w3.org/2000/svg" xmlns:xlink="http://www.w3.org/1999/xlink" version="1.1"><path d="M0 9L11.5 13C23 17 46 25 69 29C92 33 115 33 138.2 30.3C161.3 27.7 184.7 22.3 207.8 21.3C231 20.3 254 23.7 277 22.7C300 21.7 323 16.3 346 16C369 15.7 392 20.3 415.2 20.7C438.3 21 461.7 17 484.8 15C508 13 531 13 554 13.7C577 14.3 600 15.7 623 18.7C646 21.7 669 26.3 692.2 25.3C715.3 24.3 738.7 17.7 761.8 17C785 16.3 808 21.7 831 24.3C854 27 877 27 888.5 27L900 27L900 0L888.5 0C877 0 854 0 831 0C808 0 785 0 761.8 0C738.7 0 715.3 0 692.2 0C669 0 646 0 623 0C600 0 577 0 554 0C531 0 508 0 484.8 0C461.7 0 438.3 0 415.2 0C392 0 369 0 346 0C323 0 300 0 277 0C254 0 231 0 207.8 0C184.7 0 161.3 0 138.2 0C115 0 92 0 69 0C46 0 23 0 11.5 0L0 0Z" fill="#007cf3"></path><path d="M0 31L11.5 33.3C23 35.7 46 40.3 69 45.7C92 51 115 57 138.2 57C161.3 57 184.7 51 207.8 49C231 47 254 49 277 48C300 47 323 43 346 42.7C369 42.3 392 45.7 415.2 44.7C438.3 43.7 461.7 38.3 484.8 36.7C508 35 531 37 554 37C577 37 600 35 623 38.7C646 42.3 669 51.7 692.2 50C715.3 48.3 738.7 35.7 761.8 34C785 32.3 808 41.7 831 47C854 52.3 877 53.7 888.5 54.3L900 55L900 25L888.5 25C877 25 854 25 831 22.3C808 19.7 785 14.3 761.8 15C738.7 15.7 715.3 22.3 692.2 23.3C669 24.3 646 19.7 623 16.7C600 13.7 577 12.3 554 11.7C531 11 508 11 484.8 13C461.7 15 438.3 19 415.2 18.7C392 18.3 369 13.7 346 14C323 14.3 300 19.7 277 20.7C254 21.7 231 18.3 207.8 19.3C184.7 20.3 161.3 25.7 138.2 28.3C115 31 92 31 69 27C46 23 23 15 11.5 11L0 7Z" fill="#2064c0"></path><path d="M0 61L11.5 70C23 79 46 97 69 101.7C92 106.3 115 97.7 138.2 98C161.3 98.3 184.7 107.7 207.8 107C231 106.3 254 95.7 277 95.3C300 95 323 105 346 110C369 115 392 115 415.2 114C438.3 113 461.7 111 484.8 104.7C508 98.3 531 87.7 554 80C577 72.3 600 67.7 623 71.3C646 75 669 87 692.2 89.3C715.3 91.7 738.7 84.3 761.8 86.7C785 89 808 101 831 102.3C854 103.7 877 94.3 888.5 89.7L900 85L900 53L888.5 52.3C877 51.7 854 50.3 831 45C808 39.7 785 30.3 761.8 32C738.7 33.7 715.3 46.3 692.2 48C669 49.7 646 40.3 623 36.7C600 33 577 35 554 35C531 35 508 33 484.8 34.7C461.7 36.3 438.3 41.7 415.2 42.7C392 43.7 369 40.3 346 40.7C323 41 300 45 277 46C254 47 231 45 207.8 47C184.7 49 161.3 55 138.2 55C115 55 92 49 69 43.7C46 38.3 23 33.7 11.5 31.3L0 29Z" fill="#264d8e"></path><path d="M0 87L11.5 95.3C23 103.7 46 120.3 69 123.7C92 127 115 117 138.2 119.3C161.3 121.7 184.7 136.3 207.8 137.7C231 139 254 127 277 122.7C300 118.3 323 121.7 346 125.3C369 129 392 133 415.2 137C438.3 141 461.7 145 484.8 139.3C508 133.7 531 118.3 554 105.7C577 93 600 83 623 84C646 85 669 97 692.2 100C715.3 103 738.7 97 761.8 100.3C785 103.7 808 116.3 831 119.7C854 123 877 117 888.5 114L900 111L900 83L888.5 87.7C877 92.3 854 101.7 831 100.3C808 99 785 87 761.8 84.7C738.7 82.3 715.3 89.7 692.2 87.3C669 85 646 73 623 69.3C600 65.7 577 70.3 554 78C531 85.7 508 96.3 484.8 102.7C461.7 109 438.3 111 415.2 112C392 113 369 113 346 108C323 103 300 93 277 93.3C254 93.7 231 104.3 207.8 105C184.7 105.7 161.3 96.3 138.2 96C115 95.7 92 104.3 69 99.7C46 95 23 77 11.5 68L0 59Z" fill="#243760"></path><path d="M0 131L11.5 135C23 139 46 147 69 145.7C92 144.3 115 133.7 138.2 135.3C161.3 137 184.7 151 207.8 154.3C231 157.7 254 150.3 277 151.7C300 153 323 163 346 166.7C369 170.3 392 167.7 415.2 168.3C438.3 169 461.7 173 484.8 171.3C508 169.7 531 162.3 554 150.7C577 139 600 123 623 118.3C646 113.7 669 120.3 692.2 122C715.3 123.7 738.7 120.3 761.8 127C785 133.7 808 150.3 831 152C854 153.7 877 140.3 888.5 133.7L900 127L900 109L888.5 112C877 115 854 121 831 117.7C808 114.3 785 101.7 761.8 98.3C738.7 95 715.3 101 692.2 98C669 95 646 83 623 82C600 81 577 91 554 103.7C531 116.3 508 131.7 484.8 137.3C461.7 143 438.3 139 415.2 135C392 131 369 127 346 123.3C323 119.7 300 116.3 277 120.7C254 125 231 137 207.8 135.7C184.7 134.3 161.3 119.7 138.2 117.3C115 115 92 125 69 121.7C46 118.3 23 101.7 11.5 93.3L0 85Z" fill="#1c2336"></path><path d="M0 201L11.5 201C23 201 46 201 69 201C92 201 115 201 138.2 201C161.3 201 184.7 201 207.8 201C231 201 254 201 277 201C300 201 323 201 346 201C369 201 392 201 415.2 201C438.3 201 461.7 201 484.8 201C508 201 531 201 554 201C577 201 600 201 623 201C646 201 669 201 692.2 201C715.3 201 738.7 201 761.8 201C785 201 808 201 831 201C854 201 877 201 888.5 201L900 201L900 125L888.5 131.7C877 138.3 854 151.7 831 150C808 148.3 785 131.7 761.8 125C738.7 118.3 715.3 121.7 692.2 120C669 118.3 646 111.7 623 116.3C600 121 577 137 554 148.7C531 160.3 508 167.7 484.8 169.3C461.7 171 438.3 167 415.2 166.3C392 165.7 369 168.3 346 164.7C323 161 300 151 277 149.7C254 148.3 231 155.7 207.8 152.3C184.7 149 161.3 135 138.2 133.3C115 131.7 92 142.3 69 143.7C46 145 23 137 11.5 133L0 129Z" fill="#0e0e0e"></path></svg>